HIERARCHY
ROOT Hips
{
	OFFSET 0 0 0
	CHANNELS 6 Xposition Yposition Zposition Zrotation Yrotation Xrotation
	JOINT LeftThigh
	{
		OFFSET 8.209213 0 -5.776854
		CHANNELS 3 Zrotation Yrotation Xrotation
		JOINT LeftLeg
		{
			OFFSET 0 0 -41.350112
			CHANNELS 3 Zrotation Yrotation Xrotation
			JOINT LeftFoot
			{
				OFFSET 0 0 -38.420225
				CHANNELS 3 Zrotation Yrotation Xrotation
				End Site
				{
					OFFSET 0 -13.011281 -4.889596
				}
			}
		}
	}
	JOINT RightThigh
	{
		OFFSET -8.209213 0 -5.776854
		CHANNELS 3 Zrotation Yrotation Xrotation
		JOINT RightLeg
		{
			OFFSET 0 0 -41.350112
			CHANNELS 3 Zrotation Yrotation Xrotation
			JOINT RightFoot
			{
				OFFSET 0 0 -38.420225
				CHANNELS 3 Zrotation Yrotation Xrotation
				End Site
				{
					OFFSET 0 -13.011281 -4.889596
				}
			}
		}
	}
	JOINT SpineLow
	{
		OFFSET 0 0 4.606742
		CHANNELS 3 Zrotation Yrotation Xrotation
		JOINT SpineMid
		{
			OFFSET 0 0 12.592067
			CHANNELS 3 Zrotation Yrotation Xrotation
			JOINT Chest
			{
				OFFSET 0 0 12.592067
				CHANNELS 3 Zrotation Yrotation Xrotation
				JOINT LeftShoulder
				{
					OFFSET 7.370787 1.382022 9.213483
					CHANNELS 3 Zrotation Yrotation Xrotation
					JOINT LeftArm
					{
						OFFSET 8.937079 0 4.146067
						CHANNELS 3 Zrotation Yrotation Xrotation
						JOINT LeftForearm
						{
							OFFSET 0 0 25.158337
							CHANNELS 3 Zrotation Yrotation Xrotation
							JOINT LeftHand
							{
								OFFSET 0 0 24.597236
								CHANNELS 3 Zrotation Yrotation Xrotation
							}
						}
					}
				}
				JOINT RightShoulder
				{
					OFFSET -7.370787 1.382022 9.213483
					CHANNELS 3 Zrotation Yrotation Xrotation
					JOINT RightArm
					{
						OFFSET -8.937079 0 4.146067
						CHANNELS 3 Zrotation Yrotation Xrotation
						JOINT RightForearm
						{
							OFFSET 0 0 -25.158337
							CHANNELS 3 Zrotation Yrotation Xrotation
							JOINT RightHand
							{
								OFFSET 0 0 -24.597236
								CHANNELS 3 Zrotation Yrotation Xrotation
							}
						}
					}
				}
				JOINT Neck
				{
					OFFSET 0 0 14.741573
					CHANNELS 3 Zrotation Yrotation Xrotation
					JOINT Head
					{
						OFFSET 0 0 11.05618
						CHANNELS 3 Zrotation Yrotation Xrotation
						End Site
						{
							OFFSET 0 0 7.325843
						}
					}
				}
			}
		}
	}
}
MOTION
Frames: 8
Frame Time: 0.01
-17.442129 88.0624350426301 -8.268998 177.947813 27.264263 88.11898 0.024152 -11.987663 0.443974 5.962721 0.691393 -1.116988 3.973131 -0.88128 0.158128 -4.236683 14.792278 0.859136 -8.45314 1.467814 0.951867 -0.90294 0.117033 -0.314686 0.34221 0.642552 -1.590067 0.892889 1.777936 -4.338057 0.892889 1.777936 -4.338057 -9.06985 9.345341 22.899981 108.852617 34.375807 160.620139 -23.903133 9.877039 43.217227 77.846637 -18.773306 -6.055774 -0.673221 -13.805459 16.520859 57.830977 46.094099 -10.240653 -18.779124 14.066071 -40.207836 91.190418 -12.212241 -12.103702 -5.161287 0.030235 2.586168 -3.871175 0.000835 1.940046
-17.466145 88.0639610918179 -8.251019 177.969348 27.224223 88.140776 0.097823 -12.016275 0.38451 5.75229 0.705389 -1.11 4.015679 -0.890905 0.141437 -4.505627 14.818921 0.751499 -8.289233 1.420602 1.016364 -0.850607 0.097153 -0.335577 0.334891 0.636728 -1.568512 0.873847 1.761271 -4.27939 0.873847 1.76127 -4.279391 -9.04158 9.374214 22.662188 108.54857 34.305991 160.482057 -23.989085 9.840066 43.258362 77.856882 -18.765423 -6.031263 -0.619536 -13.758337 16.293013 57.810805 46.127893 -10.17422 -18.791024 14.042462 -40.27376 91.201364 -12.20049 -12.160396 -5.158676 0.020776 2.491566 -3.869168 -0.00545 1.869007
-17.500736 88.0685189949128 -8.230469 178.017141 27.287008 88.202658 0.412953 -12.075363 0.280209 5.344931 0.722712 -1.119821 4.089876 -0.887913 0.135822 -4.837849 14.832389 0.684383 -7.873453 1.290147 0.923482 -0.841532 0.093774 -0.304929 0.34056 0.625265 -1.572973 0.889959 1.730378 -4.291562 0.889959 1.730378 -4.291561 -8.815456 9.368884 22.500359 108.216499 34.321326 160.444328 -24.230806 9.811818 43.131508 77.944016 -18.671035 -5.948274 -0.611272 -13.720686 16.198218 58.172335 46.108727 -10.010387 -18.986195 14.159609 -40.209147 91.142093 -12.318925 -12.254561 -5.032852 0.038865 2.451894 -3.774867 0.008957 1.839389
-17.51288 88.0674556776591 -8.195373 178.048769 27.288762 88.234422 0.659655 -12.130706 0.18709 5.041263 0.748264 -1.118601 4.113827 -0.896392 0.127066 -5.131499 14.842007 0.575518 -7.611303 1.229245 0.950393 -0.811854 0.092386 -0.306547 0.347235 0.622978 -1.596994 0.907715 1.72488 -4.357084 0.907715 1.72488 -4.357084 -8.82532 9.382415 22.598826 108.006836 34.311816 160.343952 -24.316827 9.822869 43.175557 77.928936 -18.683037 -5.895605 -0.678353 -13.736214 16.255779 58.173369 46.158222 -9.928343 -18.978598 14.128577 -40.252637 91.168988 -12.323588 -12.243306 -5.045283 0.028257 2.528735 -3.784156 0.000317 1.896938
-17.544582 88.0773729193113 -8.168304 178.136671 27.355168 88.298585 1.03188 -12.232767 0.072563 4.605472 0.783225 -1.106162 4.199564 -0.921074 0.110172 -5.342954 14.782304 0.470339 -7.277158 1.140998 0.936026 -0.705801 0.080531 -0.39137 0.390896 0.612313 -1.650607 1.026327 1.699426 -4.502648 1.026327 1.699426 -4.502648 -8.911915 9.438845 22.862628 107.820007 34.395279 160.337446 -24.646013 9.736464 43.018038 77.994601 -18.59468 -5.71973 -0.98902 -13.716534 16.53191 58.48731 46.169495 -9.831725 -19.143822 14.2224 -40.149173 91.18344 -12.341751 -12.202877 -5.024314 0.043576 2.687881 -3.768514 0.010585 2.01643
-17.540466 88.0758647594943 -8.131203 178.173366 27.327791 88.301313 1.264043 -12.291586 -0.001579 4.357387 0.802683 -1.087014 4.191235 -0.934345 0.104778 -5.679862 14.780103 0.394251 -6.957373 1.088143 0.949065 -0.703699 0.084185 -0.461043 0.402366 0.61563 -1.694974 1.056284 1.709954 -4.623599 1.056284 1.709954 -4.623599 -8.981392 9.442303 23.153417 107.729888 34.430038 160.2859 -24.658347 9.705549 43.029825 77.958355 -18.610088 -5.652952 -1.145319 -13.757325 16.804392 58.485031 46.252668 -9.785274 -19.187862 14.168404 -40.168625 91.185679 -12.370408 -12.154667 -5.059186 0.022919 2.87811 -3.794597 -0.006638 2.158948
-17.521704 88.0761328811878 -8.065316 178.252639 27.366544 88.329105 1.642931 -12.3929 -0.107675 4.105762 0.808442 -1.07219 4.17478 -0.937665 0.11395 -5.870444 14.725503 0.286504 -6.591931 1.008851 0.942132 -0.935733 0.146964 -0.408812 0.434481 0.604842 -1.741184 1.143592 1.683506 -4.749252 1.143592 1.683506 -4.749252 -9.093135 9.531608 23.432548 107.672019 34.534256 160.275693 -24.782026 9.638322 42.909732 78.003438 -18.512786 -5.627767 -1.389167 -13.74337 17.10117 58.849425 46.293842 -9.682635 -19.332611 13.99826 -39.808117 91.093107 -12.403963 -11.864091 -5.025401 0.050536 3.04918 -3.769414 0.012829 2.287484
-17.510517 88.0720153770307 -8.02093 178.272477 27.32474 88.309641 1.859457 -12.43112 -0.186102 3.890202 0.814482 -1.025326 4.158044 -0.946025 0.114845 -6.19441 14.716911 0.240213 -6.290851 0.993292 0.937999 -0.901003 0.12737 -0.494567 0.4351 0.60601 -1.761699 1.144671 1.687086 -4.805303 1.144671 1.687086 -4.805303 -9.147772 9.559889 23.561164 107.617843 34.57087 160.220639 -24.79711 9.608911 42.850209 77.975353 -18.505535 -5.610455 -1.435167 -13.769309 17.242402 58.896438 46.376541 -9.623612 -19.453534 13.948537 -39.786643 91.105894 -12.429606 -11.837906 -5.022401 0.037217 3.173099 -3.767114 0.001835 2.380321
